<?xml version="1.0" encoding="UTF-8" ?>
<!DOCTYPE svg PUBLIC "-//W3C//DTD SVG 1.1//EN" "http://www.w3.org/Graphics/SVG/1.1/DTD/svg11.dtd">
<svg width="350pt" height="350pt" viewBox="0 0 350 350" version="1.1" xmlns="http://www.w3.org/2000/svg">
<g id="#ffffffff">
</g>
<g id="#2980b9ff">
<path fill="#2980b9" opacity="1.00" d=" M 4.57 35.56 C 8.16 32.11 13.48 32.97 18.00 32.85 C 125.02 32.94 232.04 32.82 339.05 32.90 C 343.76 32.48 347.41 35.78 350.00 39.30 L 350.00 258.77 C 347.86 262.83 343.84 266.09 339.04 265.90 C 317.34 266.11 295.62 265.75 273.92 266.07 C 273.66 283.41 273.88 300.76 273.72 318.10 C 259.30 301.56 245.51 284.47 231.31 267.74 C 230.14 265.94 227.98 265.93 226.07 265.92 C 155.02 265.97 83.97 265.95 12.92 265.93 C 6.42 266.38 0.22 260.72 0.83 254.06 C 0.81 184.35 0.84 114.65 0.82 44.95 C 0.71 41.47 1.76 37.81 4.57 35.56 M 28.46 57.62 C 27.29 57.83 25.95 58.78 25.92 60.08 C 25.52 64.03 25.61 68.03 25.81 71.99 C 25.67 73.89 27.32 75.56 29.21 75.47 C 33.07 75.66 36.94 75.69 40.80 75.43 C 42.16 75.37 43.47 74.21 43.59 72.84 C 43.95 68.91 43.85 64.95 43.69 61.01 C 43.82 59.34 42.53 57.63 40.80 57.57 C 36.70 57.34 32.56 57.26 28.46 57.62 M 53.40 57.59 C 51.65 57.71 50.40 59.50 50.52 61.19 C 50.38 64.99 50.29 68.80 50.60 72.59 C 50.72 74.35 52.50 75.60 54.19 75.49 C 57.99 75.64 61.81 75.72 65.60 75.41 C 67.35 75.28 68.61 73.50 68.50 71.81 C 68.63 68.01 68.71 64.19 68.41 60.41 C 68.29 58.64 66.51 57.39 64.81 57.51 C 61.01 57.37 57.19 57.28 53.40 57.59 M 77.48 57.69 C 76.45 58.07 75.48 59.02 75.42 60.16 C 75.07 64.09 75.16 68.05 75.32 71.99 C 75.19 73.66 76.47 75.37 78.20 75.43 C 82.05 75.69 85.93 75.66 89.79 75.47 C 91.24 75.47 92.99 74.50 93.10 72.92 C 93.49 68.66 93.49 64.34 93.10 60.08 C 92.99 58.50 91.24 57.53 89.79 57.53 C 85.69 57.39 81.55 57.20 77.48 57.69 M 118.44 57.59 C 117.20 57.72 115.84 58.73 115.78 60.06 C 115.39 64.33 115.39 68.67 115.78 72.95 C 115.96 74.98 118.32 75.65 120.05 75.54 C 186.35 75.53 252.66 75.54 318.96 75.54 C 320.68 75.66 322.78 74.81 323.02 72.89 C 323.43 68.65 323.43 64.34 323.02 60.10 C 322.69 57.74 319.98 57.31 318.03 57.43 C 251.50 57.59 184.96 57.28 118.44 57.59 Z" />
</g>
</svg>
